<?xml version="1.0" encoding="UTF-8" standalone="no"?>
<!DOCTYPE svg PUBLIC "-//W3C//DTD SVG 1.1//EN"
 "http://www.w3.org/Graphics/SVG/1.1/DTD/svg11.dtd">
<!-- Generated by graphviz version 13.1.0 (20250701.0955)
 -->
<!-- Title: interface/driver_hcsr04_interface.h Pages: 1 -->
<svg width="252pt" height="152pt"
 viewBox="0.00 0.00 252.00 152.00" xmlns="http://www.w3.org/2000/svg" xmlns:xlink="http://www.w3.org/1999/xlink">
<g id="graph0" class="graph" transform="scale(1 1) rotate(0) translate(4 148)">
<title>interface/driver_hcsr04_interface.h</title>
<!-- Node1 -->
<g id="Node000001" class="node">
<title>Node1</title>
<g id="a_Node000001"><a xlink:title="driver hcsr04 interface header file">
<polygon fill="#999999" stroke="#666666" points="179.25,-144 64.25,-144 64.25,-112 179.25,-112 179.25,-144"/>
<text xml:space="preserve" text-anchor="start" x="72.25" y="-130.5" font-family="Helvetica,sans-Serif" font-size="10.00">interface/driver_hcsr04</text>
<text xml:space="preserve" text-anchor="middle" x="121.75" y="-118.5" font-family="Helvetica,sans-Serif" font-size="10.00">_interface.h</text>
</a>
</g>
</g>
<!-- Node2 -->
<g id="Node000002" class="node">
<title>Node2</title>
<g id="a_Node000002"><a xlink:href="driver__hcsr04_8h.html" target="_top" xlink:title="driver hcsr04 header file">
<polygon fill="white" stroke="#666666" points="163.12,-76 80.38,-76 80.38,-56 163.12,-56 163.12,-76"/>
<text xml:space="preserve" text-anchor="middle" x="121.75" y="-62.5" font-family="Helvetica,sans-Serif" font-size="10.00">driver_hcsr04.h</text>
</a>
</g>
</g>
<!-- Node1&#45;&gt;Node2 -->
<g id="edge1_Node000001_Node000002" class="edge">
<title>Node1&#45;&gt;Node2</title>
<g id="a_edge1_Node000001_Node000002"><a xlink:title=" ">
<path fill="none" stroke="#63b8ff" d="M121.75,-111.55C121.75,-104.34 121.75,-95.66 121.75,-87.88"/>
<polygon fill="#63b8ff" stroke="#63b8ff" points="125.25,-87.92 121.75,-77.92 118.25,-87.92 125.25,-87.92"/>
</a>
</g>
</g>
<!-- Node3 -->
<g id="Node000003" class="node">
<title>Node3</title>
<g id="a_Node000003"><a xlink:title=" ">
<polygon fill="#e0e0e0" stroke="#999999" points="47.5,-20 0,-20 0,0 47.5,0 47.5,-20"/>
<text xml:space="preserve" text-anchor="middle" x="23.75" y="-6.5" font-family="Helvetica,sans-Serif" font-size="10.00">stdlib.h</text>
</a>
</g>
</g>
<!-- Node2&#45;&gt;Node3 -->
<g id="edge2_Node000002_Node000003" class="edge">
<title>Node2&#45;&gt;Node3</title>
<g id="a_edge2_Node000002_Node000003"><a xlink:title=" ">
<path fill="none" stroke="#63b8ff" d="M104.68,-55.59C89.87,-47.44 68.18,-35.48 50.98,-26"/>
<polygon fill="#63b8ff" stroke="#63b8ff" points="52.73,-22.97 42.28,-21.21 49.35,-29.1 52.73,-22.97"/>
</a>
</g>
</g>
<!-- Node4 -->
<g id="Node000004" class="node">
<title>Node4</title>
<g id="a_Node000004"><a xlink:title=" ">
<polygon fill="#e0e0e0" stroke="#999999" points="113.88,-20 65.62,-20 65.62,0 113.88,0 113.88,-20"/>
<text xml:space="preserve" text-anchor="middle" x="89.75" y="-6.5" font-family="Helvetica,sans-Serif" font-size="10.00">stdint.h</text>
</a>
</g>
</g>
<!-- Node2&#45;&gt;Node4 -->
<g id="edge3_Node000002_Node000004" class="edge">
<title>Node2&#45;&gt;Node4</title>
<g id="a_edge3_Node000002_Node000004"><a xlink:title=" ">
<path fill="none" stroke="#63b8ff" d="M116.18,-55.59C112,-48.55 106.15,-38.67 101.01,-30"/>
<polygon fill="#63b8ff" stroke="#63b8ff" points="104.14,-28.42 96.03,-21.6 98.12,-31.99 104.14,-28.42"/>
</a>
</g>
</g>
<!-- Node5 -->
<g id="Node000005" class="node">
<title>Node5</title>
<g id="a_Node000005"><a xlink:title=" ">
<polygon fill="#e0e0e0" stroke="#999999" points="177.38,-20 132.12,-20 132.12,0 177.38,0 177.38,-20"/>
<text xml:space="preserve" text-anchor="middle" x="154.75" y="-6.5" font-family="Helvetica,sans-Serif" font-size="10.00">stdio.h</text>
</a>
</g>
</g>
<!-- Node2&#45;&gt;Node5 -->
<g id="edge4_Node000002_Node000005" class="edge">
<title>Node2&#45;&gt;Node5</title>
<g id="a_edge4_Node000002_Node000005"><a xlink:title=" ">
<path fill="none" stroke="#63b8ff" d="M127.5,-55.59C131.8,-48.55 137.84,-38.67 143.14,-30"/>
<polygon fill="#63b8ff" stroke="#63b8ff" points="146.05,-31.95 148.28,-21.59 140.08,-28.3 146.05,-31.95"/>
</a>
</g>
</g>
<!-- Node6 -->
<g id="Node000006" class="node">
<title>Node6</title>
<g id="a_Node000006"><a xlink:title=" ">
<polygon fill="#e0e0e0" stroke="#999999" points="243.88,-20 195.62,-20 195.62,0 243.88,0 243.88,-20"/>
<text xml:space="preserve" text-anchor="middle" x="219.75" y="-6.5" font-family="Helvetica,sans-Serif" font-size="10.00">string.h</text>
</a>
</g>
</g>
<!-- Node2&#45;&gt;Node6 -->
<g id="edge5_Node000002_Node000006" class="edge">
<title>Node2&#45;&gt;Node6</title>
<g id="a_edge5_Node000002_Node000006"><a xlink:title=" ">
<path fill="none" stroke="#63b8ff" d="M138.82,-55.59C153.63,-47.44 175.32,-35.48 192.52,-26"/>
<polygon fill="#63b8ff" stroke="#63b8ff" points="194.15,-29.1 201.22,-21.21 190.77,-22.97 194.15,-29.1"/>
</a>
</g>
</g>
</g>
</svg>
