<?xml version="1.0" encoding="UTF-8" standalone="no"?>
<!DOCTYPE svg PUBLIC "-//W3C//DTD SVG 1.1//EN"
 "http://www.w3.org/Graphics/SVG/1.1/DTD/svg11.dtd">
<!-- Generated by graphviz version 14.1.1 (20251213.1925)
 -->
<!-- Title: hcsr04_basic_init Pages: 1 -->
<svg width="299pt" height="456pt"
 viewBox="0.00 0.00 299.00 456.00" xmlns="http://www.w3.org/2000/svg" xmlns:xlink="http://www.w3.org/1999/xlink">
<g id="graph0" class="graph" transform="scale(1 1) rotate(0) translate(4 452)">
<title>hcsr04_basic_init</title>
<!-- Node1 -->
<g id="Node000001" class="node">
<title>Node1</title>
<g id="a_Node000001"><a xlink:title="basic example init">
<polygon fill="#999999" stroke="#666666" points="91.75,-234 0,-234 0,-214 91.75,-214 91.75,-234"/>
<text xml:space="preserve" text-anchor="middle" x="45.88" y="-220.5" font-family="Helvetica,sans-Serif" font-size="10.00">hcsr04_basic_init</text>
</a>
</g>
</g>
<!-- Node2 -->
<g id="Node000002" class="node">
<title>Node2</title>
<g id="a_Node000002"><a xlink:href="group__hcsr04__base__driver.html#ga21bf55ec8b67ccf2819b491feeff853b" target="_top" xlink:title="initialize the chip">
<polygon fill="white" stroke="#666666" points="240.88,-448 177.62,-448 177.62,-428 240.88,-428 240.88,-448"/>
<text xml:space="preserve" text-anchor="middle" x="209.25" y="-434.5" font-family="Helvetica,sans-Serif" font-size="10.00">hcsr04_init</text>
</a>
</g>
</g>
<!-- Node1&#45;&gt;Node2 -->
<g id="edge1_Node000001_Node000002" class="edge">
<title>Node1&#45;&gt;Node2</title>
<g id="a_edge1_Node000001_Node000002"><a xlink:title=" ">
<path fill="none" stroke="#63b8ff" d="M47.92,-234.38C51.78,-267.02 68.28,-368.43 127.75,-419 138.43,-428.08 152.68,-433 166.22,-435.61"/>
<polygon fill="#63b8ff" stroke="#63b8ff" points="165.42,-439.03 175.83,-437.07 166.47,-432.11 165.42,-439.03"/>
</a>
</g>
</g>
<!-- Node3 -->
<g id="Node000003" class="node">
<title>Node3</title>
<g id="a_Node000003"><a xlink:href="group__hcsr04__interface__driver.html#gaaeb38b2900889fe8b56c7a9df76afed3" target="_top" xlink:title="interface print format data">
<polygon fill="white" stroke="#666666" points="269,-410 149.5,-410 149.5,-378 269,-378 269,-410"/>
<text xml:space="preserve" text-anchor="start" x="157.5" y="-396.5" font-family="Helvetica,sans-Serif" font-size="10.00">hcsr04_interface_debug</text>
<text xml:space="preserve" text-anchor="middle" x="209.25" y="-384.5" font-family="Helvetica,sans-Serif" font-size="10.00">_print</text>
</a>
</g>
</g>
<!-- Node1&#45;&gt;Node3 -->
<g id="edge2_Node000001_Node000003" class="edge">
<title>Node1&#45;&gt;Node3</title>
<g id="a_edge2_Node000001_Node000003"><a xlink:title=" ">
<path fill="none" stroke="#63b8ff" d="M49.65,-234.15C57.37,-260.5 81.64,-331.59 127.75,-369 131.23,-371.82 135.03,-374.33 139.02,-376.55"/>
<polygon fill="#63b8ff" stroke="#63b8ff" points="137.39,-379.65 147.91,-380.86 140.44,-373.35 137.39,-379.65"/>
</a>
</g>
</g>
<!-- Node4 -->
<g id="Node000004" class="node">
<title>Node4</title>
<g id="a_Node000004"><a xlink:href="group__hcsr04__interface__driver.html#gaa51cf4380c5a24b2121ff1c0566d6b39" target="_top" xlink:title="interface delay ms">
<polygon fill="white" stroke="#666666" points="276.88,-360 141.62,-360 141.62,-340 276.88,-340 276.88,-360"/>
<text xml:space="preserve" text-anchor="middle" x="209.25" y="-346.5" font-family="Helvetica,sans-Serif" font-size="10.00">hcsr04_interface_delay_ms</text>
</a>
</g>
</g>
<!-- Node1&#45;&gt;Node4 -->
<g id="edge3_Node000001_Node000004" class="edge">
<title>Node1&#45;&gt;Node4</title>
<g id="a_edge3_Node000001_Node000004"><a xlink:title=" ">
<path fill="none" stroke="#63b8ff" d="M51.66,-234.44C62.14,-256.09 89.32,-305.95 127.75,-331 129.9,-332.4 132.14,-333.7 134.45,-334.9"/>
<polygon fill="#63b8ff" stroke="#63b8ff" points="133.02,-338.09 143.57,-338.97 135.87,-331.7 133.02,-338.09"/>
</a>
</g>
</g>
<!-- Node5 -->
<g id="Node000005" class="node">
<title>Node5</title>
<g id="a_Node000005"><a xlink:href="group__hcsr04__interface__driver.html#ga6cb24420c4f7a081e62ed7bad2eb3338" target="_top" xlink:title="interface delay us">
<polygon fill="white" stroke="#666666" points="275.38,-322 143.12,-322 143.12,-302 275.38,-302 275.38,-322"/>
<text xml:space="preserve" text-anchor="middle" x="209.25" y="-308.5" font-family="Helvetica,sans-Serif" font-size="10.00">hcsr04_interface_delay_us</text>
</a>
</g>
</g>
<!-- Node1&#45;&gt;Node5 -->
<g id="edge4_Node000001_Node000005" class="edge">
<title>Node1&#45;&gt;Node5</title>
<g id="a_edge4_Node000001_Node000005"><a xlink:title=" ">
<path fill="none" stroke="#63b8ff" d="M55.96,-234.41C69.86,-249.66 97.95,-277.9 127.75,-293 131.25,-294.77 134.92,-296.39 138.69,-297.85"/>
<polygon fill="#63b8ff" stroke="#63b8ff" points="137.45,-301.13 148.05,-301.1 139.75,-294.51 137.45,-301.13"/>
</a>
</g>
</g>
<!-- Node6 -->
<g id="Node000006" class="node">
<title>Node6</title>
<g id="a_Node000006"><a xlink:href="group__hcsr04__interface__driver.html#ga3ab4d1b0a582c01a73e69ff0819745b5" target="_top" xlink:title="interface echo deinit">
<polygon fill="white" stroke="#666666" points="266.38,-284 152.12,-284 152.12,-252 266.38,-252 266.38,-284"/>
<text xml:space="preserve" text-anchor="start" x="160.12" y="-270.5" font-family="Helvetica,sans-Serif" font-size="10.00">hcsr04_interface_echo</text>
<text xml:space="preserve" text-anchor="middle" x="209.25" y="-258.5" font-family="Helvetica,sans-Serif" font-size="10.00">_deinit</text>
</a>
</g>
</g>
<!-- Node1&#45;&gt;Node6 -->
<g id="edge5_Node000001_Node000006" class="edge">
<title>Node1&#45;&gt;Node6</title>
<g id="a_edge5_Node000001_Node000006"><a xlink:title=" ">
<path fill="none" stroke="#63b8ff" d="M85.12,-234.43C101.71,-238.95 121.66,-244.39 140.62,-249.56"/>
<polygon fill="#63b8ff" stroke="#63b8ff" points="139.6,-252.91 150.17,-252.16 141.44,-246.16 139.6,-252.91"/>
</a>
</g>
</g>
<!-- Node7 -->
<g id="Node000007" class="node">
<title>Node7</title>
<g id="a_Node000007"><a xlink:href="group__hcsr04__interface__driver.html#ga8d7616a223ad4cecb5b257f60732d21c" target="_top" xlink:title="interface echo init">
<polygon fill="white" stroke="#666666" points="275.38,-234 143.12,-234 143.12,-214 275.38,-214 275.38,-234"/>
<text xml:space="preserve" text-anchor="middle" x="209.25" y="-220.5" font-family="Helvetica,sans-Serif" font-size="10.00">hcsr04_interface_echo_init</text>
</a>
</g>
</g>
<!-- Node1&#45;&gt;Node7 -->
<g id="edge6_Node000001_Node000007" class="edge">
<title>Node1&#45;&gt;Node7</title>
<g id="a_edge6_Node000001_Node000007"><a xlink:title=" ">
<path fill="none" stroke="#63b8ff" d="M91.83,-224C104.14,-224 117.85,-224 131.4,-224"/>
<polygon fill="#63b8ff" stroke="#63b8ff" points="131.21,-227.5 141.21,-224 131.21,-220.5 131.21,-227.5"/>
</a>
</g>
</g>
<!-- Node8 -->
<g id="Node000008" class="node">
<title>Node8</title>
<g id="a_Node000008"><a xlink:href="group__hcsr04__interface__driver.html#ga82bda1c164f0e8e2527834077a865dfc" target="_top" xlink:title="interface echo read">
<polygon fill="white" stroke="#666666" points="278.38,-196 140.12,-196 140.12,-176 278.38,-176 278.38,-196"/>
<text xml:space="preserve" text-anchor="middle" x="209.25" y="-182.5" font-family="Helvetica,sans-Serif" font-size="10.00">hcsr04_interface_echo_read</text>
</a>
</g>
</g>
<!-- Node1&#45;&gt;Node8 -->
<g id="edge7_Node000001_Node000008" class="edge">
<title>Node1&#45;&gt;Node8</title>
<g id="a_edge7_Node000001_Node000008"><a xlink:title=" ">
<path fill="none" stroke="#63b8ff" d="M91.4,-213.52C110.36,-209.05 132.68,-203.79 152.71,-199.08"/>
<polygon fill="#63b8ff" stroke="#63b8ff" points="153.47,-202.5 162.4,-196.8 151.86,-195.68 153.47,-202.5"/>
</a>
</g>
</g>
<!-- Node9 -->
<g id="Node000009" class="node">
<title>Node9</title>
<g id="a_Node000009"><a xlink:href="group__hcsr04__interface__driver.html#ga4e63965ac047d4d23be21d5e9a105cd0" target="_top" xlink:title="interface timestamp read">
<polygon fill="white" stroke="#666666" points="290.75,-158 127.75,-158 127.75,-138 290.75,-138 290.75,-158"/>
<text xml:space="preserve" text-anchor="middle" x="209.25" y="-144.5" font-family="Helvetica,sans-Serif" font-size="10.00">hcsr04_interface_timestamp_read</text>
</a>
</g>
</g>
<!-- Node1&#45;&gt;Node9 -->
<g id="edge8_Node000001_Node000009" class="edge">
<title>Node1&#45;&gt;Node9</title>
<g id="a_edge8_Node000001_Node000009"><a xlink:title=" ">
<path fill="none" stroke="#63b8ff" d="M58.58,-213.53C73.56,-200.69 100.81,-179.12 127.75,-167 132.02,-165.08 136.51,-163.34 141.1,-161.76"/>
<polygon fill="#63b8ff" stroke="#63b8ff" points="141.96,-165.16 150.46,-158.83 139.87,-158.48 141.96,-165.16"/>
</a>
</g>
</g>
<!-- Node10 -->
<g id="Node000010" class="node">
<title>Node10</title>
<g id="a_Node000010"><a xlink:href="group__hcsr04__interface__driver.html#gad12d0790582a2dcf8dcdebcf3182aba1" target="_top" xlink:title="interface trig deinit">
<polygon fill="white" stroke="#666666" points="262.62,-120 155.88,-120 155.88,-88 262.62,-88 262.62,-120"/>
<text xml:space="preserve" text-anchor="start" x="163.88" y="-106.5" font-family="Helvetica,sans-Serif" font-size="10.00">hcsr04_interface_trig</text>
<text xml:space="preserve" text-anchor="middle" x="209.25" y="-94.5" font-family="Helvetica,sans-Serif" font-size="10.00">_deinit</text>
</a>
</g>
</g>
<!-- Node1&#45;&gt;Node10 -->
<g id="edge9_Node000001_Node000010" class="edge">
<title>Node1&#45;&gt;Node10</title>
<g id="a_edge9_Node000001_Node000010"><a xlink:title=" ">
<path fill="none" stroke="#63b8ff" d="M52.82,-213.76C64.61,-194.33 92.86,-152.03 127.75,-129 133.15,-125.44 139.08,-122.36 145.21,-119.7"/>
<polygon fill="#63b8ff" stroke="#63b8ff" points="146.18,-123.08 154.22,-116.18 143.64,-116.56 146.18,-123.08"/>
</a>
</g>
</g>
<!-- Node11 -->
<g id="Node000011" class="node">
<title>Node11</title>
<g id="a_Node000011"><a xlink:href="group__hcsr04__interface__driver.html#ga9efac0ec2df73f557ec75cbdf8e32efe" target="_top" xlink:title="interface trig init">
<polygon fill="white" stroke="#666666" points="271.62,-70 146.88,-70 146.88,-50 271.62,-50 271.62,-70"/>
<text xml:space="preserve" text-anchor="middle" x="209.25" y="-56.5" font-family="Helvetica,sans-Serif" font-size="10.00">hcsr04_interface_trig_init</text>
</a>
</g>
</g>
<!-- Node1&#45;&gt;Node11 -->
<g id="edge10_Node000001_Node000011" class="edge">
<title>Node1&#45;&gt;Node11</title>
<g id="a_edge10_Node000001_Node000011"><a xlink:title=" ">
<path fill="none" stroke="#63b8ff" d="M49.5,-213.66C56.87,-186.87 80.37,-114.79 127.75,-79 130.38,-77.01 133.19,-75.23 136.12,-73.63"/>
<polygon fill="#63b8ff" stroke="#63b8ff" points="137.48,-76.85 145.11,-69.49 134.56,-70.49 137.48,-76.85"/>
</a>
</g>
</g>
<!-- Node12 -->
<g id="Node000012" class="node">
<title>Node12</title>
<g id="a_Node000012"><a xlink:href="group__hcsr04__interface__driver.html#gac5065da950f6e50cefa853524b451ff9" target="_top" xlink:title="interface trig write">
<polygon fill="white" stroke="#666666" points="262.62,-32 155.88,-32 155.88,0 262.62,0 262.62,-32"/>
<text xml:space="preserve" text-anchor="start" x="163.88" y="-18.5" font-family="Helvetica,sans-Serif" font-size="10.00">hcsr04_interface_trig</text>
<text xml:space="preserve" text-anchor="middle" x="209.25" y="-6.5" font-family="Helvetica,sans-Serif" font-size="10.00">_write</text>
</a>
</g>
</g>
<!-- Node1&#45;&gt;Node12 -->
<g id="edge11_Node000001_Node000012" class="edge">
<title>Node1&#45;&gt;Node12</title>
<g id="a_edge11_Node000001_Node000012"><a xlink:title=" ">
<path fill="none" stroke="#63b8ff" d="M48.42,-213.54C53.57,-182.46 73.03,-89.76 127.75,-41 132.91,-36.4 138.91,-32.65 145.26,-29.58"/>
<polygon fill="#63b8ff" stroke="#63b8ff" points="146.19,-32.99 154.07,-25.9 143.49,-26.53 146.19,-32.99"/>
</a>
</g>
</g>
</g>
</svg>
