<?xml version="1.0" encoding="UTF-8" standalone="no"?>
<!DOCTYPE svg PUBLIC "-//W3C//DTD SVG 1.1//EN"
 "http://www.w3.org/Graphics/SVG/1.1/DTD/svg11.dtd">
<!-- Generated by graphviz version 14.1.1 (20251213.1925)
 -->
<!-- Title: hcsr04_read_test Pages: 1 -->
<svg width="298pt" height="570pt"
 viewBox="0.00 0.00 298.00 570.00" xmlns="http://www.w3.org/2000/svg" xmlns:xlink="http://www.w3.org/1999/xlink">
<g id="graph0" class="graph" transform="scale(1 1) rotate(0) translate(4 566)">
<title>hcsr04_read_test</title>
<!-- Node1 -->
<g id="Node000001" class="node">
<title>Node1</title>
<g id="a_Node000001"><a xlink:title="read test">
<polygon fill="#999999" stroke="#666666" points="91,-294 0,-294 0,-274 91,-274 91,-294"/>
<text xml:space="preserve" text-anchor="middle" x="45.5" y="-280.5" font-family="Helvetica,sans-Serif" font-size="10.00">hcsr04_read_test</text>
</a>
</g>
</g>
<!-- Node2 -->
<g id="Node000002" class="node">
<title>Node2</title>
<g id="a_Node000002"><a xlink:href="group__hcsr04__base__driver.html#gab0e495e5244b98a0a92657180e540e04" target="_top" xlink:title="close the chip">
<polygon fill="white" stroke="#666666" points="245.38,-562 171.62,-562 171.62,-542 245.38,-542 245.38,-562"/>
<text xml:space="preserve" text-anchor="middle" x="208.5" y="-548.5" font-family="Helvetica,sans-Serif" font-size="10.00">hcsr04_deinit</text>
</a>
</g>
</g>
<!-- Node1&#45;&gt;Node2 -->
<g id="edge1_Node000001_Node000002" class="edge">
<title>Node1&#45;&gt;Node2</title>
<g id="a_edge1_Node000001_Node000002"><a xlink:title=" ">
<path fill="none" stroke="#63b8ff" d="M46.48,-294.39C47.01,-332.5 54.19,-465.86 127,-533 136.13,-541.42 148.29,-546.32 160.38,-549.12"/>
<polygon fill="#63b8ff" stroke="#63b8ff" points="159.42,-552.5 169.88,-550.86 160.68,-545.62 159.42,-552.5"/>
</a>
</g>
</g>
<!-- Node3 -->
<g id="Node000003" class="node">
<title>Node3</title>
<g id="a_Node000003"><a xlink:href="group__hcsr04__base__driver.html#gaa550d226b2e1a609844b4197f83bb927" target="_top" xlink:title="get chip&#39;s information">
<polygon fill="white" stroke="#666666" points="241.62,-524 175.38,-524 175.38,-504 241.62,-504 241.62,-524"/>
<text xml:space="preserve" text-anchor="middle" x="208.5" y="-510.5" font-family="Helvetica,sans-Serif" font-size="10.00">hcsr04_info</text>
</a>
</g>
</g>
<!-- Node1&#45;&gt;Node3 -->
<g id="edge2_Node000001_Node000003" class="edge">
<title>Node1&#45;&gt;Node3</title>
<g id="a_edge2_Node000001_Node000003"><a xlink:title=" ">
<path fill="none" stroke="#63b8ff" d="M47.15,-294.23C49.9,-328.39 63.57,-439.48 127,-495 137.2,-503.92 150.81,-508.85 163.94,-511.52"/>
<polygon fill="#63b8ff" stroke="#63b8ff" points="163.34,-514.96 173.76,-513.08 164.44,-508.05 163.34,-514.96"/>
</a>
</g>
</g>
<!-- Node4 -->
<g id="Node000004" class="node">
<title>Node4</title>
<g id="a_Node000004"><a xlink:href="group__hcsr04__base__driver.html#ga21bf55ec8b67ccf2819b491feeff853b" target="_top" xlink:title="initialize the chip">
<polygon fill="white" stroke="#666666" points="240.12,-486 176.88,-486 176.88,-466 240.12,-466 240.12,-486"/>
<text xml:space="preserve" text-anchor="middle" x="208.5" y="-472.5" font-family="Helvetica,sans-Serif" font-size="10.00">hcsr04_init</text>
</a>
</g>
</g>
<!-- Node1&#45;&gt;Node4 -->
<g id="edge3_Node000001_Node000004" class="edge">
<title>Node1&#45;&gt;Node4</title>
<g id="a_edge3_Node000001_Node000004"><a xlink:title=" ">
<path fill="none" stroke="#63b8ff" d="M48.14,-294.49C53.45,-324.8 73.06,-413.07 127,-457 137.79,-465.79 151.94,-470.64 165.36,-473.29"/>
<polygon fill="#63b8ff" stroke="#63b8ff" points="164.46,-476.69 174.88,-474.79 165.55,-469.77 164.46,-476.69"/>
</a>
</g>
</g>
<!-- Node5 -->
<g id="Node000005" class="node">
<title>Node5</title>
<g id="a_Node000005"><a xlink:href="group__hcsr04__interface__driver.html#gaaeb38b2900889fe8b56c7a9df76afed3" target="_top" xlink:title="interface print format data">
<polygon fill="white" stroke="#666666" points="268.25,-448 148.75,-448 148.75,-416 268.25,-416 268.25,-448"/>
<text xml:space="preserve" text-anchor="start" x="156.75" y="-434.5" font-family="Helvetica,sans-Serif" font-size="10.00">hcsr04_interface_debug</text>
<text xml:space="preserve" text-anchor="middle" x="208.5" y="-422.5" font-family="Helvetica,sans-Serif" font-size="10.00">_print</text>
</a>
</g>
</g>
<!-- Node1&#45;&gt;Node5 -->
<g id="edge4_Node000001_Node000005" class="edge">
<title>Node1&#45;&gt;Node5</title>
<g id="a_edge4_Node000001_Node000005"><a xlink:title=" ">
<path fill="none" stroke="#63b8ff" d="M50.38,-294.32C59.78,-317.9 86.05,-376.11 127,-407 130.51,-409.65 134.31,-412.02 138.28,-414.15"/>
<polygon fill="#63b8ff" stroke="#63b8ff" points="136.53,-417.19 147.07,-418.28 139.51,-410.86 136.53,-417.19"/>
</a>
</g>
</g>
<!-- Node6 -->
<g id="Node000006" class="node">
<title>Node6</title>
<g id="a_Node000006"><a xlink:href="group__hcsr04__interface__driver.html#gaa51cf4380c5a24b2121ff1c0566d6b39" target="_top" xlink:title="interface delay ms">
<polygon fill="white" stroke="#666666" points="276.12,-398 140.88,-398 140.88,-378 276.12,-378 276.12,-398"/>
<text xml:space="preserve" text-anchor="middle" x="208.5" y="-384.5" font-family="Helvetica,sans-Serif" font-size="10.00">hcsr04_interface_delay_ms</text>
</a>
</g>
</g>
<!-- Node1&#45;&gt;Node6 -->
<g id="edge5_Node000001_Node000006" class="edge">
<title>Node1&#45;&gt;Node6</title>
<g id="a_edge5_Node000001_Node000006"><a xlink:title=" ">
<path fill="none" stroke="#63b8ff" d="M53.31,-294.48C65.7,-312.64 93.71,-349.84 127,-369 129.8,-370.61 132.73,-372.09 135.75,-373.44"/>
<polygon fill="#63b8ff" stroke="#63b8ff" points="134.26,-376.61 144.85,-377.01 136.82,-370.1 134.26,-376.61"/>
</a>
</g>
</g>
<!-- Node7 -->
<g id="Node000007" class="node">
<title>Node7</title>
<g id="a_Node000007"><a xlink:href="group__hcsr04__interface__driver.html#ga6cb24420c4f7a081e62ed7bad2eb3338" target="_top" xlink:title="interface delay us">
<polygon fill="white" stroke="#666666" points="274.62,-360 142.38,-360 142.38,-340 274.62,-340 274.62,-360"/>
<text xml:space="preserve" text-anchor="middle" x="208.5" y="-346.5" font-family="Helvetica,sans-Serif" font-size="10.00">hcsr04_interface_delay_us</text>
</a>
</g>
</g>
<!-- Node1&#45;&gt;Node7 -->
<g id="edge6_Node000001_Node000007" class="edge">
<title>Node1&#45;&gt;Node7</title>
<g id="a_edge6_Node000001_Node000007"><a xlink:title=" ">
<path fill="none" stroke="#63b8ff" d="M61.24,-294.42C76.88,-305.04 102.65,-321.27 127,-331 131.99,-332.99 137.24,-334.81 142.56,-336.46"/>
<polygon fill="#63b8ff" stroke="#63b8ff" points="141.52,-339.8 152.1,-339.19 143.45,-333.07 141.52,-339.8"/>
</a>
</g>
</g>
<!-- Node8 -->
<g id="Node000008" class="node">
<title>Node8</title>
<g id="a_Node000008"><a xlink:href="group__hcsr04__interface__driver.html#ga3ab4d1b0a582c01a73e69ff0819745b5" target="_top" xlink:title="interface echo deinit">
<polygon fill="white" stroke="#666666" points="265.62,-322 151.38,-322 151.38,-290 265.62,-290 265.62,-322"/>
<text xml:space="preserve" text-anchor="start" x="159.38" y="-308.5" font-family="Helvetica,sans-Serif" font-size="10.00">hcsr04_interface_echo</text>
<text xml:space="preserve" text-anchor="middle" x="208.5" y="-296.5" font-family="Helvetica,sans-Serif" font-size="10.00">_deinit</text>
</a>
</g>
</g>
<!-- Node1&#45;&gt;Node8 -->
<g id="edge7_Node000001_Node000008" class="edge">
<title>Node1&#45;&gt;Node8</title>
<g id="a_edge7_Node000001_Node000008"><a xlink:title=" ">
<path fill="none" stroke="#63b8ff" d="M91.35,-290.13C106.39,-292.18 123.52,-294.52 139.91,-296.76"/>
<polygon fill="#63b8ff" stroke="#63b8ff" points="139.23,-300.2 149.61,-298.09 140.17,-293.27 139.23,-300.2"/>
</a>
</g>
</g>
<!-- Node9 -->
<g id="Node000009" class="node">
<title>Node9</title>
<g id="a_Node000009"><a xlink:href="group__hcsr04__interface__driver.html#ga8d7616a223ad4cecb5b257f60732d21c" target="_top" xlink:title="interface echo init">
<polygon fill="white" stroke="#666666" points="274.62,-272 142.38,-272 142.38,-252 274.62,-252 274.62,-272"/>
<text xml:space="preserve" text-anchor="middle" x="208.5" y="-258.5" font-family="Helvetica,sans-Serif" font-size="10.00">hcsr04_interface_echo_init</text>
</a>
</g>
</g>
<!-- Node1&#45;&gt;Node9 -->
<g id="edge8_Node000001_Node000009" class="edge">
<title>Node1&#45;&gt;Node9</title>
<g id="a_edge8_Node000001_Node000009"><a xlink:title=" ">
<path fill="none" stroke="#63b8ff" d="M91.35,-277.87C103.63,-276.19 117.31,-274.32 130.83,-272.48"/>
<polygon fill="#63b8ff" stroke="#63b8ff" points="131.2,-275.96 140.63,-271.14 130.25,-269.02 131.2,-275.96"/>
</a>
</g>
</g>
<!-- Node10 -->
<g id="Node000010" class="node">
<title>Node10</title>
<g id="a_Node000010"><a xlink:href="group__hcsr04__interface__driver.html#ga82bda1c164f0e8e2527834077a865dfc" target="_top" xlink:title="interface echo read">
<polygon fill="white" stroke="#666666" points="277.62,-234 139.38,-234 139.38,-214 277.62,-214 277.62,-234"/>
<text xml:space="preserve" text-anchor="middle" x="208.5" y="-220.5" font-family="Helvetica,sans-Serif" font-size="10.00">hcsr04_interface_echo_read</text>
</a>
</g>
</g>
<!-- Node1&#45;&gt;Node10 -->
<g id="edge9_Node000001_Node000010" class="edge">
<title>Node1&#45;&gt;Node10</title>
<g id="a_edge9_Node000001_Node000010"><a xlink:title=" ">
<path fill="none" stroke="#63b8ff" d="M63.85,-273.62C79.8,-264.46 104.32,-251.31 127,-243 132.42,-241.01 138.13,-239.18 143.89,-237.5"/>
<polygon fill="#63b8ff" stroke="#63b8ff" points="144.81,-240.88 153.54,-234.87 142.97,-234.13 144.81,-240.88"/>
</a>
</g>
</g>
<!-- Node11 -->
<g id="Node000011" class="node">
<title>Node11</title>
<g id="a_Node000011"><a xlink:href="group__hcsr04__interface__driver.html#ga4e63965ac047d4d23be21d5e9a105cd0" target="_top" xlink:title="interface timestamp read">
<polygon fill="white" stroke="#666666" points="290,-196 127,-196 127,-176 290,-176 290,-196"/>
<text xml:space="preserve" text-anchor="middle" x="208.5" y="-182.5" font-family="Helvetica,sans-Serif" font-size="10.00">hcsr04_interface_timestamp_read</text>
</a>
</g>
</g>
<!-- Node1&#45;&gt;Node11 -->
<g id="edge10_Node000001_Node000011" class="edge">
<title>Node1&#45;&gt;Node11</title>
<g id="a_edge10_Node000001_Node000011"><a xlink:title=" ">
<path fill="none" stroke="#63b8ff" d="M53.9,-273.73C66.76,-256.68 94.93,-222.68 127,-205 130.05,-203.32 133.24,-201.79 136.51,-200.39"/>
<polygon fill="#63b8ff" stroke="#63b8ff" points="137.68,-203.7 145.81,-196.91 135.22,-197.14 137.68,-203.7"/>
</a>
</g>
</g>
<!-- Node12 -->
<g id="Node000012" class="node">
<title>Node12</title>
<g id="a_Node000012"><a xlink:href="group__hcsr04__interface__driver.html#gad12d0790582a2dcf8dcdebcf3182aba1" target="_top" xlink:title="interface trig deinit">
<polygon fill="white" stroke="#666666" points="261.88,-158 155.12,-158 155.12,-126 261.88,-126 261.88,-158"/>
<text xml:space="preserve" text-anchor="start" x="163.12" y="-144.5" font-family="Helvetica,sans-Serif" font-size="10.00">hcsr04_interface_trig</text>
<text xml:space="preserve" text-anchor="middle" x="208.5" y="-132.5" font-family="Helvetica,sans-Serif" font-size="10.00">_deinit</text>
</a>
</g>
</g>
<!-- Node1&#45;&gt;Node12 -->
<g id="edge11_Node000001_Node000012" class="edge">
<title>Node1&#45;&gt;Node12</title>
<g id="a_edge11_Node000001_Node000012"><a xlink:title=" ">
<path fill="none" stroke="#63b8ff" d="M50.82,-273.51C60.76,-250.65 87.49,-196.09 127,-167 132.28,-163.11 138.19,-159.81 144.33,-157.03"/>
<polygon fill="#63b8ff" stroke="#63b8ff" points="145.46,-160.35 153.43,-153.36 142.84,-153.85 145.46,-160.35"/>
</a>
</g>
</g>
<!-- Node13 -->
<g id="Node000013" class="node">
<title>Node13</title>
<g id="a_Node000013"><a xlink:href="group__hcsr04__interface__driver.html#ga9efac0ec2df73f557ec75cbdf8e32efe" target="_top" xlink:title="interface trig init">
<polygon fill="white" stroke="#666666" points="270.88,-108 146.12,-108 146.12,-88 270.88,-88 270.88,-108"/>
<text xml:space="preserve" text-anchor="middle" x="208.5" y="-94.5" font-family="Helvetica,sans-Serif" font-size="10.00">hcsr04_interface_trig_init</text>
</a>
</g>
</g>
<!-- Node1&#45;&gt;Node13 -->
<g id="edge12_Node000001_Node000013" class="edge">
<title>Node1&#45;&gt;Node13</title>
<g id="a_edge12_Node000001_Node000013"><a xlink:title=" ">
<path fill="none" stroke="#63b8ff" d="M48.26,-273.86C53.89,-244.59 74.3,-159.33 127,-117 129.71,-114.82 132.63,-112.89 135.69,-111.17"/>
<polygon fill="#63b8ff" stroke="#63b8ff" points="136.96,-114.44 144.52,-107.02 133.98,-108.1 136.96,-114.44"/>
</a>
</g>
</g>
<!-- Node14 -->
<g id="Node000014" class="node">
<title>Node14</title>
<g id="a_Node000014"><a xlink:href="group__hcsr04__interface__driver.html#gac5065da950f6e50cefa853524b451ff9" target="_top" xlink:title="interface trig write">
<polygon fill="white" stroke="#666666" points="261.88,-70 155.12,-70 155.12,-38 261.88,-38 261.88,-70"/>
<text xml:space="preserve" text-anchor="start" x="163.12" y="-56.5" font-family="Helvetica,sans-Serif" font-size="10.00">hcsr04_interface_trig</text>
<text xml:space="preserve" text-anchor="middle" x="208.5" y="-44.5" font-family="Helvetica,sans-Serif" font-size="10.00">_write</text>
</a>
</g>
</g>
<!-- Node1&#45;&gt;Node14 -->
<g id="edge13_Node000001_Node000014" class="edge">
<title>Node1&#45;&gt;Node14</title>
<g id="a_edge13_Node000001_Node000014"><a xlink:title=" ">
<path fill="none" stroke="#63b8ff" d="M47.45,-273.76C51.08,-240.53 67.07,-134.71 127,-79 132.14,-74.23 138.17,-70.37 144.58,-67.24"/>
<polygon fill="#63b8ff" stroke="#63b8ff" points="145.64,-70.59 153.5,-63.5 142.93,-64.14 145.64,-70.59"/>
</a>
</g>
</g>
<!-- Node15 -->
<g id="Node000015" class="node">
<title>Node15</title>
<g id="a_Node000015"><a xlink:href="group__hcsr04__base__driver.html#ga839c62211afbc7134ca9697cb06993cd" target="_top" xlink:title="read the distance">
<polygon fill="white" stroke="#666666" points="243.12,-20 173.88,-20 173.88,0 243.12,0 243.12,-20"/>
<text xml:space="preserve" text-anchor="middle" x="208.5" y="-6.5" font-family="Helvetica,sans-Serif" font-size="10.00">hcsr04_read</text>
</a>
</g>
</g>
<!-- Node1&#45;&gt;Node15 -->
<g id="edge14_Node000001_Node000015" class="edge">
<title>Node1&#45;&gt;Node15</title>
<g id="a_edge14_Node000001_Node000015"><a xlink:title=" ">
<path fill="none" stroke="#63b8ff" d="M46.39,-273.63C46.58,-234.99 52.67,-98.02 127,-29 136.68,-20.01 149.81,-15.02 162.65,-12.33"/>
<polygon fill="#63b8ff" stroke="#63b8ff" points="162.97,-15.82 172.28,-10.75 161.84,-8.92 162.97,-15.82"/>
</a>
</g>
</g>
</g>
</svg>
