<?xml version="1.0" encoding="UTF-8" standalone="no"?>
<!DOCTYPE svg PUBLIC "-//W3C//DTD SVG 1.1//EN"
 "http://www.w3.org/Graphics/SVG/1.1/DTD/svg11.dtd">
<!-- Generated by graphviz version 14.1.1 (20251213.1925)
 -->
<!-- Title: hcsr04 driver function Pages: 1 -->
<svg width="267pt" height="240pt"
 viewBox="0.00 0.00 267.00 240.00" xmlns="http://www.w3.org/2000/svg" xmlns:xlink="http://www.w3.org/1999/xlink">
<g id="graph0" class="graph" transform="scale(1 1) rotate(0) translate(4 236)">
<title>hcsr04 driver function</title>
<!-- Node3 -->
<g id="Node000003" class="node">
<title>Node3</title>
<g id="a_Node000003"><a xlink:href="group__hcsr04__base__driver.html" target="_top" xlink:title="hcsr04 base driver modules">
<polygon fill="white" stroke="#666666" points="250.25,-232 154,-232 154,-200 250.25,-200 250.25,-232"/>
<text xml:space="preserve" text-anchor="start" x="162" y="-218.5" font-family="Helvetica,sans-Serif" font-size="10.00">hcsr04 base driver</text>
<text xml:space="preserve" text-anchor="middle" x="202.12" y="-206.5" font-family="Helvetica,sans-Serif" font-size="10.00"> function</text>
</a>
</g>
</g>
<!-- Node1 -->
<g id="Node000001" class="node">
<title>Node1</title>
<g id="a_Node000001"><a xlink:title="hcsr04 driver modules">
<polygon fill="#999999" stroke="#666666" points="109.75,-126 0,-126 0,-106 109.75,-106 109.75,-126"/>
<text xml:space="preserve" text-anchor="middle" x="54.88" y="-112.5" font-family="Helvetica,sans-Serif" font-size="10.00">hcsr04 driver function</text>
</a>
</g>
</g>
<!-- Node1&#45;&gt;Node3 -->
<g id="edge2" class="edge">
<title>Node1&#45;&gt;Node3</title>
<path fill="none" stroke="black" d="M74.35,-134.01C91.75,-150.31 119.06,-174.28 145.75,-191 150.58,-194.02 155.83,-196.89 161.12,-199.52"/>
<polygon fill="black" stroke="black" points="76.96,-131.66 67.3,-127.3 72.13,-136.73 76.96,-131.66"/>
</g>
<!-- Node5 -->
<g id="Node000005" class="node">
<title>Node5</title>
<g id="a_Node000005"><a xlink:href="group__hcsr04__example__driver.html" target="_top" xlink:title="hcsr04 example driver modules">
<polygon fill="white" stroke="#666666" points="258.12,-182 146.12,-182 146.12,-150 258.12,-150 258.12,-182"/>
<text xml:space="preserve" text-anchor="start" x="154.12" y="-168.5" font-family="Helvetica,sans-Serif" font-size="10.00">hcsr04 example driver</text>
<text xml:space="preserve" text-anchor="middle" x="202.12" y="-156.5" font-family="Helvetica,sans-Serif" font-size="10.00"> function</text>
</a>
</g>
</g>
<!-- Node1&#45;&gt;Node5 -->
<g id="edge4" class="edge">
<title>Node1&#45;&gt;Node5</title>
<path fill="none" stroke="black" d="M96.81,-130.09C114.38,-136.14 135.01,-143.24 153.28,-149.53"/>
<polygon fill="black" stroke="black" points="98.35,-126.92 87.76,-126.97 96.07,-133.54 98.35,-126.92"/>
</g>
<!-- Node4 -->
<g id="Node000004" class="node">
<title>Node4</title>
<g id="a_Node000004"><a xlink:href="group__hcsr04__interface__driver.html" target="_top" xlink:title="hcsr04 interface driver modules">
<polygon fill="white" stroke="#666666" points="258.5,-132 145.75,-132 145.75,-100 258.5,-100 258.5,-132"/>
<text xml:space="preserve" text-anchor="start" x="153.75" y="-118.5" font-family="Helvetica,sans-Serif" font-size="10.00">hcsr04 interface driver</text>
<text xml:space="preserve" text-anchor="middle" x="202.12" y="-106.5" font-family="Helvetica,sans-Serif" font-size="10.00"> function</text>
</a>
</g>
</g>
<!-- Node1&#45;&gt;Node4 -->
<g id="edge3" class="edge">
<title>Node1&#45;&gt;Node4</title>
<path fill="none" stroke="black" d="M121.29,-116C129.39,-116 137.61,-116 145.54,-116"/>
<polygon fill="black" stroke="black" points="121.47,-112.5 111.47,-116 121.47,-119.5 121.47,-112.5"/>
</g>
<!-- Node2 -->
<g id="Node000002" class="node">
<title>Node2</title>
<g id="a_Node000002"><a xlink:href="group__hcsr04__link__driver.html" target="_top" xlink:title="hcsr04 link driver modules">
<polygon fill="white" stroke="#666666" points="247.25,-82 157,-82 157,-50 247.25,-50 247.25,-82"/>
<text xml:space="preserve" text-anchor="start" x="165" y="-68.5" font-family="Helvetica,sans-Serif" font-size="10.00">hcsr04 link driver</text>
<text xml:space="preserve" text-anchor="middle" x="202.12" y="-56.5" font-family="Helvetica,sans-Serif" font-size="10.00"> function</text>
</a>
</g>
</g>
<!-- Node1&#45;&gt;Node2 -->
<g id="edge1" class="edge">
<title>Node1&#45;&gt;Node2</title>
<path fill="none" stroke="black" d="M97.12,-101.8C115.71,-95.4 137.7,-87.83 156.65,-81.31"/>
<polygon fill="black" stroke="black" points="96.07,-98.46 87.76,-105.03 98.35,-105.08 96.07,-98.46"/>
</g>
<!-- Node6 -->
<g id="Node000006" class="node">
<title>Node6</title>
<g id="a_Node000006"><a xlink:href="group__hcsr04__test__driver.html" target="_top" xlink:title="hcsr04 test driver modules">
<polygon fill="white" stroke="#666666" points="248,-32 156.25,-32 156.25,0 248,0 248,-32"/>
<text xml:space="preserve" text-anchor="start" x="164.25" y="-18.5" font-family="Helvetica,sans-Serif" font-size="10.00">hcsr04 test driver</text>
<text xml:space="preserve" text-anchor="middle" x="202.12" y="-6.5" font-family="Helvetica,sans-Serif" font-size="10.00"> function</text>
</a>
</g>
</g>
<!-- Node1&#45;&gt;Node6 -->
<g id="edge5" class="edge">
<title>Node1&#45;&gt;Node6</title>
<path fill="none" stroke="black" d="M74.35,-97.99C91.75,-81.69 119.06,-57.72 145.75,-41 150.58,-37.98 155.83,-35.11 161.12,-32.48"/>
<polygon fill="black" stroke="black" points="72.13,-95.27 67.3,-104.7 76.96,-100.34 72.13,-95.27"/>
</g>
</g>
</svg>
